# xmcd
#
# Track frame offsets:
#	150
#	17956
#	35848
#	55084
#	77559
#	90930
#	108313
#	119890
#	141946
#	161747
#	174892
#	193677
#	210069
#	227585
#	254238
#	276407
#	294261
#	313200
#	331691
#
# Disc length: 4611 seconds
#
# Revision: 1
# Processed by: cddbd v1.4PL0 Copyright (c) Steve Scherf et al.
# Submitted via: EasyCDDAExtractor 5.0.6
#
DISCID=0f120113
DTITLE=Jean Marc - Ses meilleurs chansons du Bugey - Valromey
DYEAR=2002
DGENRE=Country
TTITLE0=Le trou de la marmitte
TTITLE1=Le grand Colombier
TTITLE2=Le lac de Virieu
TTITLE3=Grand pere de Ruffieu
TTITLE4=le petit , le grand ....
TTITLE5=Sous les sapins de Cormaranche
TTITLE6=Josephine de l'Albarine
TTITLE7=Les plans d'Hotonnes
TTITLE8=Les vins de chez nous
TTITLE9=Le chanteur regional
TTITLE10=François le bûcheron
TTITLE11=La dent du chat
TTITLE12=Passe la porte
TTITLE13=Les gens du retord
TTITLE14=La fille du Crêt du nu
TTITLE15=Marie-Christine
TTITLE16=Notre dame de Maziere
TTITLE17=Chez Constance
TTITLE18=Le vin petillant du Cerdon
EXTD=
EXTT0=
EXTT1=
EXTT2=
EXTT3=
EXTT4=
EXTT5=
EXTT6=
EXTT7=
EXTT8=
EXTT9=
EXTT10=
EXTT11=
EXTT12=
EXTT13=
EXTT14=
EXTT15=
EXTT16=
EXTT17=
EXTT18=
PLAYORDER=
